PathFileType	4	(X/Y/Z)	CPRIT_Patient3_L_KneeIso_Processed.TRC
DataRate	CameraRate	NumFrames	NumMarkers	Units	OrigDataRate	OrigDataStartFrame	OrigNumFrames
150.195058517555	150.195058517555	7	36	m	150.195058517555	290	       771
Frame#	Time	R.Heel			R.Midfoot.Superior			R.Midfoot.Lateral			R.Toe			L.Heel			L.Midfoot.Superior			L.Midfoot.Lateral			L.Toe			R.Shank.Superior			R.Shank.Inferior			R.Shank.Lateral			R.Shank.Posterior			L.Shank.Superior			L.Shank.Inferior			L.Shank.Posterior			L.Shank.Lateral			R.Patella			L.Patella			R.Thigh.Superior			R.Thigh.Lateral			R.Thigh.Inferior			L.Thigh.Superior			L.Thigh.Inferior			L.Thigh.Lateral			L.Asis			R.Asis			R.Shoulder			L.Shoulder			C7			J.Notch			Sternum			Thoracic			L.Elbow			L.Wrist			R.Elbow			R.Wrist			
		X1	Y1	Z1	X2	Y2	Z2	X3	Y3	Z3	X4	Y4	Z4	X5	Y5	Z5	X6	Y6	Z6	X7	Y7	Z7	X8	Y8	Z8	X9	Y9	Z9	X10	Y10	Z10	X11	Y11	Z11	X12	Y12	Z12	X13	Y13	Z13	X14	Y14	Z14	X15	Y15	Z15	X16	Y16	Z16	X17	Y17	Z17	X18	Y18	Z18	X19	Y19	Z19	X20	Y20	Z20	X21	Y21	Z21	X22	Y22	Z22	X23	Y23	Z23	X24	Y24	Z24	X25	Y25	Z25	X26	Y26	Z26	X27	Y27	Z27	X28	Y28	Z28	X29	Y29	Z29	X30	Y30	Z30	X31	Y31	Z31	X32	Y32	Z32	X33	Y33	Z33	X34	Y34	Z34	X35	Y35	Z35	X36	Y36	Z36	

290	1.924164502165	0.480659549120	0.049337365015	0.082917812774	0.647326780580	0.098064955115	0.116326692110	0.549765781405	0.038010647370	0.147902275576	0.762040340884	0.054588481988	0.140085288918	0.583607394262	0.064758507716	-0.073126814877	0.751870117387	0.121163984678	-0.098556469968	0.660349692335	0.053914717018	-0.133341593767	0.868884911273	0.082104563044	-0.108144742229	0.605826514636	0.357765673431	0.149171422846	0.597333439211	0.238013689027	0.138353600780	0.527629627348	0.289335646196	0.195298263352	0.467455255599	0.355716012797	0.140698249003	0.731806091431	0.392570755812	-0.091838368372	0.711129959440	0.263728364482	-0.092351254630	0.589442331665	0.375311709993	-0.099159110724	0.659854661977	0.313766466450	-0.149194939976	0.634018855921	0.466024452059	0.136726605667	0.762220288425	0.510543290832	-0.078643268655	0.686323127852	0.776270291332	0.166672126960	0.605000008568	0.706366645754	0.222583454380	0.672938150464	0.617637464618	0.133957789598	0.693956687097	0.818204869224	-0.097973460890	0.737343225142	0.664134341261	-0.082772029218	0.624902165519	0.725416651173	-0.149532759199	0.644473501645	0.956310264469	-0.074405192289	0.676629961738	0.937073251940	0.158649371629	0.568866750947	1.444805669069	0.230404813937	0.593520019807	1.435314560020	-0.098926999496	0.538183105714	1.479832825944	0.083072801715	0.658409465551	1.381283170662	0.069971678599	0.714700995032	1.201080868552	0.056423934481	0.456118946813	1.323820508575	0.073797034359	0.544460781270	1.172777536167	-0.275837961079	0.614463718073	0.988306260264	-0.432402224998	0.550383343512	1.139730319296	0.388398576050	0.761853334077	0.990658839452	0.414572126572	
291	1.930822510823	0.480659362629	0.049337684799	0.082917339241	0.647336745136	0.098069412523	0.116326998515	0.549765225184	0.038011659027	0.147901664868	0.762036011638	0.054598535435	0.140097101267	0.588368541588	0.063479435543	-0.073142812365	0.756027407330	0.121775303704	-0.098434743529	0.665270689618	0.053508967858	-0.133295448243	0.873467677506	0.084022163342	-0.107963452034	0.605817022564	0.357769807287	0.149156233420	0.597328177096	0.238027506852	0.138344293391	0.527621781444	0.289348605232	0.195279566603	0.467445394958	0.355721319793	0.140670015910	0.732851356423	0.392999372476	-0.091669429725	0.713654967743	0.263903198595	-0.092260470865	0.590660363429	0.374199933495	-0.099081096773	0.661792289701	0.313364376385	-0.149176437114	0.634020810854	0.466006121068	0.136771880813	0.761939314043	0.511055994345	-0.078473676770	0.686324256040	0.776269678223	0.166642185558	0.604990533686	0.706372521954	0.222551978004	0.672930852382	0.617633271116	0.133925579756	0.693901340705	0.818127834796	-0.098017901709	0.736980632131	0.664089517526	-0.082590145007	0.624697691301	0.725434093298	-0.149630705129	0.644479611708	0.956294321586	-0.074457249806	0.676640573168	0.937079592831	0.158605110091	0.568769403353	1.444789437857	0.230372176220	0.593465421214	1.435329990794	-0.098949988881	0.538108785268	1.479824904671	0.083043548179	0.658354863281	1.381308449210	0.069947686339	0.714698649673	1.201117937952	0.056393963082	0.456077606063	1.323797421125	0.073747069538	0.544440306419	1.172784247566	-0.275864272903	0.614467878715	0.988307853878	-0.432410314905	0.550353181271	1.139694592543	0.388338236324	0.761847435791	0.990656698498	0.414561920168	
292	1.937480519481	0.480659109357	0.049338060812	0.082916889216	0.647344292096	0.098072610995	0.116326863816	0.549764634195	0.038012643967	0.147901042160	0.762031135963	0.054609919967	0.140110339535	0.593064698576	0.062293666585	-0.073132593119	0.760113358167	0.122433384630	-0.098305416789	0.670113885075	0.053178836949	-0.133228506246	0.877956690999	0.085966534697	-0.107779702496	0.605807551295	0.357773889049	0.149139036461	0.597324063676	0.238042425764	0.138334266224	0.527613949669	0.289361496411	0.195261357031	0.467435908269	0.355726711700	0.140641974228	0.733896237102	0.393440175454	-0.091514976139	0.716150673932	0.264117315368	-0.092163014107	0.591887780507	0.373139805698	-0.098999193275	0.663714699561	0.313006036207	-0.149147120554	0.634022089296	0.465989322504	0.136810655918	0.761681707714	0.511580171775	-0.078316278466	0.686326337519	0.776268780378	0.166609468032	0.604983291800	0.706378401224	0.222519093008	0.672925337465	0.617629793748	0.133893522650	0.693846743260	0.818060873463	-0.098067454241	0.736638552281	0.664065338264	-0.082424496540	0.624500101667	0.725458184672	-0.149729557107	0.644481769170	0.956279681640	-0.074511271813	0.676652082925	0.937085708506	0.158557791702	0.568677868792	1.444773980309	0.230340888177	0.593413364874	1.435345450578	-0.098971560455	0.538037984547	1.479817969020	0.083016041043	0.658303388504	1.381333438003	0.069923764044	0.714697216700	1.201154012599	0.056362367836	0.456038424990	1.323775986642	0.073700020161	0.544420991691	1.172790767433	-0.275888357221	0.614471642776	0.988309069405	-0.432416991116	0.550324998331	1.139660361636	0.388280205231	0.761842297038	0.990654346086	0.414552029286	
293	1.944138528139	0.480658799751	0.049338481686	0.082916466578	0.647349658374	0.098074692725	0.116326362828	0.549764022867	0.038013587225	0.147900413301	0.762025765975	0.054622552727	0.140124916888	0.597691762786	0.061199540442	-0.073098881753	0.764125940680	0.123133979615	-0.098168254437	0.674876198938	0.052920775583	-0.133142337099	0.882350493560	0.087930958066	-0.107591005149	0.605798221907	0.357777877039	0.149119837721	0.597321002225	0.238058152430	0.138323572766	0.527606295975	0.289374245463	0.195243590698	0.467426916737	0.355732179881	0.140614173488	0.734940983488	0.393891559776	-0.091375533464	0.718616023487	0.264368676355	-0.092059561860	0.593124182659	0.372131712991	-0.098915490762	0.665622858790	0.312690232977	-0.149107690882	0.634022727340	0.465974273105	0.136842257724	0.761449432784	0.512115017691	-0.078170421814	0.686329524151	0.776267757252	0.166573803224	0.604978571427	0.706384291512	0.222484839117	0.672921488408	0.617627048400	0.133861251624	0.693793463515	0.818004517267	-0.098122408322	0.736318936148	0.664062488061	-0.082276005313	0.624310914954	0.725488894806	-0.149828842707	0.644479904829	0.956266579266	-0.074567153616	0.676664409043	0.937091710830	0.158507434382	0.568592489665	1.444759384306	0.230310957700	0.593363543356	1.435360894474	-0.098991834997	0.537970710071	1.479811996408	0.082990392047	0.658254826941	1.381357975899	0.069899815430	0.714696353350	1.201188976451	0.056329003062	0.456001144537	1.323756222282	0.073656164636	0.544402529683	1.172797011189	-0.275910249935	0.614474950338	0.988309926638	-0.432422328821	0.550299093112	1.139627960865	0.388224975291	0.761837988009	0.990651817306	0.414542496265	
294	1.950796536797	0.480658446363	0.049338934953	0.082916073800	0.647353103711	0.098075808904	0.116325573998	0.549763407889	0.038014476662	0.147899783668	0.762019973090	0.054636310779	0.140140700515	0.602245753023	0.060195063267	-0.073044299029	0.768063096767	0.123872824020	-0.098023316807	0.679554492710	0.052731134918	-0.133038645527	0.886647652507	0.089908836108	-0.107395621369	0.605789167052	0.357781730945	0.149098683745	0.597318882940	0.238074388847	0.138312269329	0.527598973348	0.289386793035	0.195226200660	0.467418543944	0.355737725010	0.140586623856	0.735985744818	0.394351995748	-0.091251304077	0.721049846401	0.264655090346	-0.091950945091	0.594368966742	0.371175875553	-0.098831586794	0.667517433874	0.312415661433	-0.149058848169	0.634022802013	0.465961154940	0.136866159703	0.761244274084	0.512659581742	-0.078035336975	0.686333951749	0.776266767517	0.166535091153	0.604976612886	0.706390198608	0.222449263963	0.672919212356	0.617625050838	0.133828440927	0.693742180265	0.817959207024	-0.098182810270	0.736023510489	0.664081409846	-0.082145060369	0.624131748510	0.725526182665	-0.149928055376	0.644474087734	0.956255247149	-0.074624724774	0.676677468181	0.937097719751	0.158454138602	0.568513518723	1.444745730475	0.230282374372	0.593315606388	1.435376271796	-0.099010937762	0.537906909970	1.479806946213	0.082966691143	0.658208926182	1.381381918001	0.069875736596	0.714695714247	1.201222739293	0.056293758877	0.455965482933	1.323738114525	0.073615732077	0.544384598018	1.172802904782	-0.275930027187	0.614477749757	0.988310452101	-0.432426420644	0.550275739132	1.139597708758	0.388173001560	0.761834566987	0.990649153357	0.414533363558	
295	1.957454545455	0.480658063357	0.049339408104	0.082915711516	0.647354901259	0.098076111239	0.116324574528	0.549762807930	0.038015303987	0.147899157818	0.762013848275	0.054651027468	0.140157507373	0.606722822493	0.059277911915	-0.072971347802	0.771922760874	0.124645657588	-0.097870967332	0.684145605825	0.052606183836	-0.132919252037	0.890846781950	0.091893746303	-0.107192574043	0.605780534593	0.357785413372	0.149075664239	0.597317595947	0.238090839953	0.138300411616	0.527592123819	0.289399095911	0.195209100934	0.467410917998	0.355743357523	0.140559299771	0.737030567348	0.394820029963	-0.091142194916	0.723450854744	0.264974226732	-0.091838140965	0.595621336815	0.370272321241	-0.098748620061	0.669398750719	0.312180929968	-0.149001297129	0.634022432728	0.465950120211	0.136881977814	0.761067801474	0.513212782154	-0.077910160981	0.686339742319	0.776265969493	0.166493310789	0.604977604809	0.706396126453	0.222412423966	0.672918452097	0.617623816516	0.133794819093	0.693693678359	0.817925301145	-0.098248446069	0.735753756150	0.664122305112	-0.082031522570	0.623964294204	0.725570006049	-0.150026649412	0.644464522676	0.956245909098	-0.074683749569	0.676691178608	0.937103860286	0.158398090172	0.568441110238	1.444733088858	0.230255110178	0.593269164436	1.435391526340	-0.099028994122	0.537846473487	1.479802762943	0.082944998711	0.658165400030	1.381405138326	0.069851421519	0.714694960041	1.201255239820	0.056256565140	0.455931141135	1.323721618672	0.073578899053	0.544366865596	1.172808382490	-0.275947800165	0.614479998102	0.988310676468	-0.432429374369	0.550255181858	1.139569904383	0.388124696768	0.761832078425	0.990646399756	0.414524675029	
296	1.964112554113	0.480657666000	0.049339889786	0.082915378067	0.647355328678	0.098075744942	0.116323436364	0.549762243184	0.038016065683	0.147898538982	0.762007501387	0.054666490859	0.140175102001	0.611119271671	0.058445445340	-0.072882413959	0.775702887133	0.125448248792	-0.097711860961	0.688646400849	0.052542126651	-0.132786070656	0.894946567563	0.093879490211	-0.106981618946	0.605772490284	0.357788891485	0.149050912462	0.597317042662	0.238107220430	0.138288052204	0.527585879392	0.289411127650	0.195192191084	0.467404173192	0.355749097771	0.140532145355	0.738075391782	0.395294281206	-0.091047856282	0.725817647119	0.265323633378	-0.091722254458	0.596880320970	0.369420865704	-0.098667326970	0.671266770976	0.311984568230	-0.148935755059	0.634021780262	0.465941296108	0.136889461367	0.760921337025	0.513773423268	-0.077793964950	0.686347006980	0.776265521151	0.166448526176	0.604981682384	0.706402077816	0.222374385782	0.672919195598	0.617623359786	0.133760180417	0.693648840525	0.817903085217	-0.098318834634	0.735510895600	0.664185142817	-0.081934750981	0.623810290712	0.725620330271	-0.150124035599	0.644451543205	0.956238772589	-0.074743930500	0.676705462564	0.937110259243	0.158339560031	0.568375313345	1.444721516038	0.230229120328	0.593223794024	1.435406597191	-0.099046127683	0.537789233096	1.479799379886	0.082925336118	0.658123934085	1.381427532524	0.069826767454	0.714693766723	1.201286447904	0.056217395006	0.455897809312	1.323706659363	0.073545786731	0.544348998842	1.172813384250	-0.275963709314	0.614481661019	0.988310632702	-0.432431311423	0.550237635397	1.139544823625	0.388080426009	0.761830551085	0.990643604522	0.414516476230	
